<svg width="24" height="24" viewBox="0 0 24 24" fill="none" xmlns="http://www.w3.org/2000/svg">
<path d="M14.164 19.751C14.075 19.596 13.91 19.5 13.73 19.5H10.27C10.091 19.5 9.92604 19.596 9.83604 19.751C9.74604 19.906 9.74804 20.098 9.83804 20.252C10.294 21.033 11.102 21.5 12 21.5C12.898 21.5 13.706 21.033 14.162 20.252C14.252 20.098 14.253 19.906 14.164 19.751Z" fill="#505150"/>
<path opacity="0.4" d="M20.3908 17.688C20.3718 17.665 18.4948 15.282 18.4948 12.5V8.995C18.4948 5.414 15.5808 2.5 11.9998 2.5C8.41881 2.5 5.5048 5.414 5.5048 8.995V12.5C5.5048 15.281 3.62881 17.664 3.60881 17.688C3.48881 17.838 3.46581 18.044 3.54881 18.217C3.63181 18.39 3.80681 18.5 3.99881 18.5H19.9988C20.1908 18.5 20.3658 18.39 20.4488 18.217C20.5338 18.043 20.5098 17.838 20.3908 17.688Z" fill="#505150"/>
</svg>
